PathFileType	4	(X/Y/Z)	6_2_77_p1_0-283.trc
DataRate	CameraRate	NumFrames	NumMarkers	Units	OrigDataRate	OrigDataStartFrame	OrigNumFrames
60.0	60.0	6	27	m	60.0	213	284
Frame#	Time	RHip			RKnee			RAnkle			RBigToe			RSmallToe			RHeel			LHip			LKnee			LAnkle			LBigToe			LSmallToe			LHeel			Neck			Head			Nose			RShoulder			RElbow			RWrist			RThumb			RIndex			RPinky			LShoulder			LElbow			LWrist			LThumb			LIndex			LPinky			
		X1	Y1	Z1	X2	Y2	Z2	X3	Y3	Z3	X4	Y4	Z4	X5	Y5	Z5	X6	Y6	Z6	X7	Y7	Z7	X8	Y8	Z8	X9	Y9	Z9	X10	Y10	Z10	X11	Y11	Z11	X12	Y12	Z12	X13	Y13	Z13	X14	Y14	Z14	X15	Y15	Z15	X16	Y16	Z16	X17	Y17	Z17	X18	Y18	Z18	X19	Y19	Z19	X20	Y20	Z20	X21	Y21	Z21	X22	Y22	Z22	X23	Y23	Z23	X24	Y24	Z24	X25	Y25	Z25	X26	Y26	Z26	X27	Y27	Z27	
213	3.55	0.2610555860581649	0.44816977699185245	0.7534377940327355	0.2956869916379154	0.4628936828256633	1.1412320150262203	0.2760180153379412	0.5833564902585276	1.5285170532003538	0.2731452726644565	0.38124839473583644	1.5246478512653157	0.33910881162367035	0.44618361269399337	1.5506842161203727	0.2571661313542396	0.5963690817633923	1.5763160750485232	0.052289727848226525	0.4448679206163518	0.7668091139863503	0.05547710955753259	0.4473534166602594	1.1373464864490428	0.08792070706832235	0.5073700383082046	1.5112184777885413	0.09236298364655954	0.411323139545471	1.5661827851757515	0.05200099052571338	0.37686008960259926	1.5189573793337672	0.11445320605019721	0.6051949446581573	1.5871329509411745	0.12942311162449385	0.4514004159996586	0.2296214385207555	0.13691352514086524	0.3548874244771954	-0.031091523113089495	0.13842521769048222	0.3062393697128085	0.1188962981790325	0.2934403332539246	0.4265556002343265	0.2654134977210072	0.3476155271743789	0.45067896588864775	0.5007266369465666	0.3014130106501238	0.3503687729491297	0.7074834010234846	0.22856788711438736	0.351733224540104	0.8129948919355219	0.23881229627571537	0.32501635691797565	0.8146091281965671	0.3027818285476837	0.35306636203912906	0.8171645167586954	-0.01043057394150071	0.4536695907962004	0.26039013367809166	-0.07957039188478614	0.489620130008243	0.48478443397387155	-0.0016618848147054652	0.30912724664636543	0.5322644203492506	0.05714688595867008	0.21826941524568275	0.5043445730887175	0.05550799045303832	0.19356267187657392	0.5216970139868403	0.04548358156172615	0.22053363814624077	0.5594504155893885
214	3.566666666666667	0.26086865437509665	0.44853897694124856	0.7576080953918807	0.295678239945001	0.46295857984683575	1.1413853372857379	0.275996553882957	0.5833976620801169	1.5284574551444519	0.27732916650696227	0.36758973288284663	1.51555363930707	0.3391199637159571	0.4460010123711854	1.5504719138593805	0.25563331639257275	0.5945377606164631	1.5708033302087838	0.05287911363915635	0.4437385636876836	0.7704829004557782	0.05552521415192777	0.4471696498591548	1.1374574736556067	0.0879115013813531	0.5073911954468662	1.51122600149718	0.09731464790940485	0.3982350998058703	1.55728296972504	0.05208071672201386	0.3767393656364891	1.518746723436179	0.11349874674381302	0.6061503158842378	1.5923845584813383	0.1289248920183175	0.45029376944750793	0.22626936037897533	0.13691498340062402	0.3550164911814612	-0.031147456968031832	0.13800116503319598	0.3055445955079517	0.11555128290422886	0.29405339702519606	0.427586796017642	0.2692163685722534	0.3435410085688375	0.46449688164396985	0.5131582033690775	0.3016826953946145	0.3501726493593417	0.7075316678251417	0.2330014016063696	0.33846069186086364	0.8080806986348916	0.2389825288292145	0.32504622118232135	0.8148973746742915	0.3057903275049603	0.3644443909072235	0.8212449827119546	-0.01383482531214347	0.4525021412770518	0.26427958671486435	-0.07850347852195927	0.4914349523073905	0.49260100930118567	0.0003028139874133712	0.3095387077325024	0.5521202956031768	0.05072922113316151	0.21715583066224697	0.5255500223673689	0.04963045449076557	0.19272043104779057	0.5343740550701669	0.0486660404614828	0.21856029847643235	0.5962073917711649
215	3.5833333333333335	0.2612598525115992	0.4478983869697788	0.7532103157621879	0.2956636226824095	0.46297273626497315	1.1412648069460314	0.27542096333601684	0.584970925835668	1.5249658672573578	0.26920657832250683	0.3700129679568203	1.5135425118390806	0.3383784617222114	0.44761672530378976	1.5468134248278933	0.25711917314670935	0.596343991486637	1.576280737661118	0.05632980583468733	0.4471313603594172	0.7670279781581808	0.0554593469489487	0.44738678445548224	1.1373198755890725	0.08787981375159903	0.5075678835215371	1.5112010645227734	0.09215071802849308	0.4115731755683467	1.566070168725514	0.05287292603333781	0.3764807905024214	1.5140813531783768	0.1143905206852876	0.6054455942064569	1.5872673747230897	0.12900322619718868	0.45033853149471076	0.22273729069033163	0.13691764232223672	0.3549881574844087	-0.03121044834266472	0.13794764050008346	0.30552471366378314	0.11547278074723284	0.29400062428362733	0.4276062104835938	0.26917846372271687	0.34368576035103104	0.46456546445942276	0.5088377291617536	0.3019623319171138	0.3503123135243863	0.7074646490607857	0.2331725552637109	0.33855258033258223	0.8080234751123183	0.24649263632308757	0.32446242354101973	0.8137095759494344	0.3020049262446258	0.36321470160440467	0.8212384138083016	-0.01424166809378421	0.451252565551545	0.2604212006015243	-0.07908493916019872	0.49013002642213116	0.4889352524458423	-0.004931490315486392	0.32149620995118094	0.5599665271373802	0.055597370219540705	0.22012105357989054	0.5333481069073472	0.05066977942499081	0.206636394310726	0.5515300264698788	0.05326858090191563	0.21570708968887153	0.611309733903095
216	3.6	0.2609074531144916	0.4480621096157797	0.7571468204132832	0.29496753524464847	0.4647739465584985	1.136721120692688	0.2799757604352179	0.5694288446969683	1.5154139604621535	0.2728036564396825	0.3570985145177296	1.5090753256382048	0.3384388989625545	0.4477304480160491	1.546867527168817	0.2568719102218234	0.5959742600114556	1.5758732158945137	0.05271250742576635	0.44398388704013847	0.7703795013708693	0.05495767428496401	0.4486163614805326	1.134037280771408	0.08715773855703847	0.5094664515808515	1.5075343761466786	0.09236600810066281	0.4105243602052676	1.5657505908765612	0.04761080388338051	0.39045799702951156	1.5232554750940714	0.11366056979509444	0.6073937112850275	1.5834581287113374	0.12897660315616605	0.4502814467549542	0.2226108024643846	0.13691601079923496	0.3550816656950596	-0.031226450246376887	0.13936929434309478	0.29689490589438144	0.11415469819708006	0.28947650272208486	0.4397841206273758	0.2641980839852365	0.3475874810392367	0.45102493721648024	0.5046641876334816	0.30608357789524815	0.3378838859812671	0.7027177206864275	0.22894385946347667	0.3373411098890222	0.8077506035196904	0.24211920943615114	0.33732429643844725	0.8188470964785772	0.3059405086971483	0.3661853105198832	0.8217348221565202	-0.014253009732442628	0.451241992673631	0.26039108481865514	-0.07848364373935188	0.49318758853537925	0.48859514255910746	-0.009166978673086463	0.3199948943886459	0.5678153584852902	0.0511463722045252	0.21798521299083115	0.5410820945277771	0.05467016741869127	0.2179991475734872	0.5699870772872525	0.04061343684346675	0.22687537333160596	0.6225237067865995
217	3.6166666666666667	0.26118933199732697	0.44777378980032245	0.7529243709437179	0.2937906988064104	0.4633828119602538	1.1315494486711897	0.2800048220194772	0.5694804171198039	1.5154058595768456	0.26854757637216786	0.37072150370815093	1.5180327613425628	0.33838158842971844	0.4478326148363832	1.546890344674233	0.2571050088307687	0.5962955270615551	1.576084788790913	0.05211483765788607	0.44495975459851006	0.7667238647629794	0.054959083267370076	0.4487304886087936	1.1339472400879143	0.08721003605583268	0.5093563042086109	1.507682744913535	0.09248463680769647	0.410679355496693	1.565988029142949	0.04757289525948326	0.39054550207677696	1.5232854873332702	0.11379948159208818	0.6074498739705246	1.5835554559062075	0.12895383915380557	0.45045176578277546	0.2226049364806677	0.13694409258823168	0.35518579882232215	-0.031228087553770077	0.14200326438977093	0.3074059991019734	0.11516217986890963	0.2934009406565477	0.42651339681682565	0.2614072135704605	0.3504337655443699	0.4618922914826889	0.5027746777916344	0.3098199380039307	0.339326602554435	0.7026040254524231	0.22866968908031782	0.3370709234246563	0.8073216611336763	0.23865402962320503	0.32543935347801656	0.8145511317335847	0.3020329607615875	0.37893328119345604	0.8269492179482559	-0.01419971095692309	0.4511624201457697	0.2603257898221768	-0.0811389967112998	0.48134676185515907	0.481771486318064	-0.012802294928147677	0.3192667057171403	0.5723581499006112	0.049025683250028255	0.23427556641085762	0.5608002380606009	0.05492083495708685	0.20737398215244227	0.5869508568959652	0.041232003181846284	0.22726634058867157	0.6343075030987475
218	3.6333333333333333	0.2608943354832715	0.44836734486080804	0.7566527092255659	0.2937628207259205	0.4635806575438002	1.1309382500565974	0.27997623029728574	0.5695092039046421	1.5153736957510051	0.27278233776388405	0.3571427417804691	1.5090801774508558	0.33834949059370656	0.4476798282036831	1.54673568314931	0.2570508643463018	0.5962621814431357	1.576038694464046	0.05272209371675352	0.44435201249218925	0.7703462316507553	0.054888392443452595	0.4486471990557656	1.133967576533095	0.08722859884204771	0.509376541877019	1.5077642391753399	0.09248859727955751	0.41082345926275177	1.5660490075665934	0.04677454075842031	0.3910219139555399	1.5278668155301671	0.11379283928494524	0.6073598815047092	1.583691788873441	0.12897238534818664	0.45025914830695324	0.22250489593838488	0.13692863686828907	0.3551784457280903	-0.0312869498590823	0.14194718859728422	0.3077093250306814	0.11172629072663104	0.293443285558276	0.4264400312638055	0.2615046125830772	0.35060319036863047	0.462252531460233	0.5028353772033407	0.3053118243787785	0.3508996071360595	0.6986277687256566	0.22866746615920705	0.3502253592847987	0.8081242626499129	0.2381769716483327	0.338557821916334	0.8156192240924498	0.2940184329582199	0.40747252896668007	0.8378260410306189	-0.013760079158824665	0.4523776726652627	0.26434973867001527	-0.08083077166957528	0.4806002513922625	0.48988852372836467	-0.012761497555969071	0.3184054962062443	0.5800465740663687	0.05287493015894811	0.24609686935208358	0.5814557783569697	0.053457345936979074	0.22699986068407668	0.6039613951109506	0.04118010944097694	0.2273152304696284	0.6356233900618401
